<svg xmlns="http://www.w3.org/2000/svg" xmlns:xlink="http://www.w3.org/1999/xlink" viewBox="0 0 172 93.04"><defs><linearGradient id="a" x1="425.65" y1="487.24" x2="597.02" y2="487.24" gradientTransform="matrix(1, 0, 0, -1, 0, 1026)" gradientUnits="userSpaceOnUse"><stop offset="0.06" stop-color="#aa1119"/><stop offset="0.28" stop-color="#c81a17"/><stop offset="0.54" stop-color="#e72415"/><stop offset="0.69" stop-color="#e82d13"/><stop offset="0.93" stop-color="#e9450f"/><stop offset="1" stop-color="#ea4d0d"/></linearGradient><linearGradient id="c" x1="425.65" y1="487.24" x2="597.02" y2="487.24" gradientTransform="matrix(1, 0, 0, -1, -426, 560.52)" xlink:href="#a"/><linearGradient id="e" x1="425.65" y1="514" x2="597.02" y2="514" xlink:href="#a"/></defs><title>Anta Sports logo</title><path d="M499.33,558.52,519.61,519H528l-1.68,39.51H517.9l.38-5.3h-7.94l-2.61,5.3ZM513.85,545h4.94l1.5-14Z" transform="translate(-426 -465.48)" style="fill:url(#a)"/><path d="M426,558.52,446.23,519h8.46L453,558.52h-8.49l.39-5.3h-8l-2.58,5.3ZM440.48,545h4.94l1.5-14Z" transform="translate(-426 -465.48)" style="fill:url(#a)"/><polygon points="38.88 53.51 46.35 53.51 49.49 74.69 55.39 53.51 63.97 53.51 52.96 93.04 44.58 93.04 41.69 73.38 36.21 93.04 27.84 93.04 38.88 53.51" style="fill:url(#c)"/><polygon points="65.91 53.51 89.8 53.51 87.41 61.99 79.86 61.99 71.19 93.04 62.85 93.04 71.49 61.99 63.54 61.99 65.91 53.51" style="fill:url(#c)"/><path d="M598,535.2a148.67,148.67,0,0,0-70.66-53.81,224.07,224.07,0,0,1,49.52,7.26l-11.13-9.45A211.29,211.29,0,0,0,445,470.52l-19,13c2.4,0,6-.15,8.42-.15A180.27,180.27,0,0,1,581,558.52Z" transform="translate(-426 -465.48)" style="fill:url(#e)"/></svg>