<svg id="Layer_1" data-name="Layer 1" xmlns="http://www.w3.org/2000/svg" viewBox="0 0 310.87 365.9"><title>Arsenal F.C logo - Brandlogos.net</title><g id="_Group_" data-name="&lt;Group&gt;"><g id="_Group_2" data-name="&lt;Group&gt;"><path id="_Path_" data-name="&lt;Path&gt;" d="M381,247.66a339.26,339.26,0,0,1,138.94,29.5c9.14,37.16,14.89,75.92,15,101.32,0,.46,0,.92,0,1.38a248.36,248.36,0,0,1-10.7,72.72,237.55,237.55,0,0,1-30.89,64.28A258.49,258.49,0,0,1,444.67,570c-20.2,16.77-43.95,31.84-63.67,40.44-19.73-8.6-43.47-23.68-63.67-40.44a258.5,258.5,0,0,1-48.7-53.19,237.61,237.61,0,0,1-30.89-64.28A248.22,248.22,0,0,1,227,379.85c0-.46,0-.92,0-1.37.13-25.39,5.88-64.16,15-101.32A339.27,339.27,0,0,1,381,247.66" transform="translate(-225.56 -246.05)" style="fill:#fff"/><path id="_Path_2" data-name="&lt;Path&gt;" d="M381,393.63A57.38,57.38,0,1,0,438.34,451,57.38,57.38,0,0,0,381,393.63" transform="translate(-225.56 -246.05)" style="fill:#da2128"/><path id="_Path_3" data-name="&lt;Path&gt;" d="M296.51,438c-6.21,0-11.52-4.89-13.62-11.76h-5.22c-1.35,0-3.35-1.63-3.35-6.56s2-6.56,3.35-6.56h5.21c2.1-6.89,7.41-11.8,13.63-11.8h50.18a60.45,60.45,0,0,0-24.57,36.06c-11.11.39-19.64.62-25.62.62" transform="translate(-225.56 -246.05)" style="fill:#da2128"/><path id="_Path_4" data-name="&lt;Path&gt;" d="M377.17,404.22a46.89,46.89,0,0,0-34.83,20.11l26.72,15.41a16.35,16.35,0,0,1,8.11-4.69V404.22" transform="translate(-225.56 -246.05)" style="fill:#fff"/><path id="_Path_5" data-name="&lt;Path&gt;" d="M381,442.65a8.34,8.34,0,1,0,8.34,8.34,8.34,8.34,0,0,0-8.34-8.34" transform="translate(-225.56 -246.05)" style="fill:#fff"/><path id="_Path_6" data-name="&lt;Path&gt;" d="M384.77,404.23v30.84a16.3,16.3,0,0,1,8.1,4.68l26.72-15.41a46.9,46.9,0,0,0-34.83-20.11" transform="translate(-225.56 -246.05)" style="fill:#fff"/><path id="_Path_7" data-name="&lt;Path&gt;" d="M376.77,466.78a16.35,16.35,0,0,1-6.39-3.34c-.34-.3-.68-.6-1-.92L342.57,478c.55.78,1.12,1.53,1.71,2.27a46.85,46.85,0,0,0,32.5,17.48v-31" transform="translate(-225.56 -246.05)" style="fill:#fff"/><path id="_Path_8" data-name="&lt;Path&gt;" d="M392.53,462.52a16.35,16.35,0,0,1-7.4,4.26v31A46.9,46.9,0,0,0,419.36,478l-26.83-15.49" transform="translate(-225.56 -246.05)" style="fill:#fff"/><path id="_Path_9" data-name="&lt;Path&gt;" d="M423.56,470.77a47,47,0,0,0-.16-39.85l-26.74,15.43a16.27,16.27,0,0,1,.08,8.95l26.82,15.48" transform="translate(-225.56 -246.05)" style="fill:#fff"/><path id="_Path_10" data-name="&lt;Path&gt;" d="M346.78,423.46,368.59,436a18.69,18.69,0,0,1,5.58-3.21V407.65a43.16,43.16,0,0,0-27.37,15.81" transform="translate(-225.56 -246.05)" style="fill:#da2128"/><path id="_Path_11" data-name="&lt;Path&gt;" d="M387.82,407.68l0,25.23a18.2,18.2,0,0,1,5.51,3.12l21.86-12.56a43,43,0,0,0-27.33-15.79" transform="translate(-225.56 -246.05)" style="fill:#da2128"/><path id="_Path_12" data-name="&lt;Path&gt;" d="M424.69,446.46A42.77,42.77,0,0,0,422,435.24l-21.89,12.58a18.77,18.77,0,0,1,.28,3.15c0,.42,0,.85-.06,1.27,6.19-1.69,12.71-3.3,19.3-4.69l5.1-1.1" transform="translate(-225.56 -246.05)" style="fill:#da2128"/><path id="_Path_13" data-name="&lt;Path&gt;" d="M386.32,451a5.37,5.37,0,1,0-5.37,5.38,5.38,5.38,0,0,0,5.37-5.38" transform="translate(-225.56 -246.05)" style="fill:#da2128"/><path id="_Path_14" data-name="&lt;Path&gt;" d="M338.5,431a46.91,46.91,0,0,0,.09,40.22l26.68-15.49a16.28,16.28,0,0,1,0-9.37L338.5,431" transform="translate(-225.56 -246.05)" style="fill:#fff"/><path id="_Path_15" data-name="&lt;Path&gt;" d="M340,466.89l21.76-12.64a18.62,18.62,0,0,1,0-6.44L340,435.28a43.16,43.16,0,0,0,.07,31.61" transform="translate(-225.56 -246.05)" style="fill:#da2128"/><path d="M456.79,353.7a3.09,3.09,0,0,1-3.56-3.28c0-1.49.51-3.71,5.11-4.95l.23,3.15.1,1.43c.07,1,.13,1.93.23,2.94a4,4,0,0,1-2.11.71m3.93-11.4c-7.63,1.25-10.18,4.54-10.08,8.26.11,4.14,2.91,5.85,6.13,5.71a6.77,6.77,0,0,0,4.86-2.28c-.26-2-.32-3.49-.47-5.59Z" transform="translate(-225.56 -246.05)" style="fill:#da2128"/><path d="M387.95,337.65,383,339.54c0-.29,0-.58,0-.87v-.12c0-5,1.89-7,3.66-7.17.54,0,2-.18,2.6,2.18a8.34,8.34,0,0,1,.36,2.13c0,1.37-.73,1.63-1.6,1.94l-.05,0m3.8-4.78c-.8-2.93-2.82-4.32-5.35-4.08-1.5.14-6.06,1.41-6,9.9a33.69,33.69,0,0,0,.33,4.53l8.16-3.14c3.55-1.27,3.78-3.9,2.87-7.21" transform="translate(-225.56 -246.05)" style="fill:#da2128"/><path d="M479,360.9a107.66,107.66,0,0,0-.85-13.15l-2.41-22.39A98.44,98.44,0,0,0,473.77,313l10.31,1.67,4,33.12a110.51,110.51,0,0,0,2,13.15H479m-15.15,0a14.53,14.53,0,0,1-1.29-3.3,13.4,13.4,0,0,1-9.62,4.2c-6.15,0-11-2.82-11.48-9.29-.42-5.84,4-9.28,8.23-11.19a34.29,34.29,0,0,1,10.76-2.73c-.31-5.56-3.54-7.08-7.26-7.08a17.38,17.38,0,0,0-9.37,3l-.47-6.49a44.94,44.94,0,0,1,8.78-1c14,0,17.52,5.78,18.15,14.23l.67,7.15c.34,4.67,1,9.14,2.39,12.51Zm-36.92,0a109,109,0,0,0,.12-13.15l-.38-10.67c-.12-3.2-1.69-5.3-4.86-5.26a5.44,5.44,0,0,0-5.29,5.87l.26,10.05a109.22,109.22,0,0,0,1.1,13.15H406.43a106.94,106.94,0,0,0,.3-13.15l-.14-8.72a96.81,96.81,0,0,0-1.2-13.45l9.08.42a22.81,22.81,0,0,1,1.24,5.2,13,13,0,0,1,10.64-5.33c6.06,0,9.68,3.74,9.92,10l.55,11.85a109.24,109.24,0,0,0,1.1,13.15Zm-22.73-7v.07l-3.94-5c-3.13,2.67-5.45,4.45-9.25,4.37-3-.06-4.82-2.07-6-4.32l19-7.13c0,2.56.09,6,.09,6v0c.07,2,.09,4,.06,6m-15.79,7.35c-7.44,0-18-4.2-18.24-18s9.62-19,17-19a15.23,15.23,0,0,1,8.82,2.56c3.25,2.26,5.57,6.2,6.21,13l-20.54,7.72c1.52,4.84,4.61,8.33,9.29,8.42a13.05,13.05,0,0,0,8.86-3.33l2.29,2.9c-3.22,3.41-7.18,5.72-13.7,5.72m-36.23-.07A27.52,27.52,0,0,1,341,359l.13-7.46c3.12,2.84,7.7,4.71,10.88,4.71,3.84,0,6.08-1.64,6.26-4.07s-1.6-3.71-3.66-4.79c-1.54-.8-4-2-6.53-3.33-3.76-1.89-6.41-4.17-6.09-9,.21-3.22,2.58-6.27,5.94-8.17a20.24,20.24,0,0,1,9.59-2.23,21.52,21.52,0,0,1,7.38,1.06l-.1,5.53a15.26,15.26,0,0,0-7.09-1.77c-3.11,0-6,1.2-6.19,3.72s2.2,3.54,3.35,4.1,3.91,1.89,6.43,3.07,6.79,3.58,6.68,9.39c-.15,8.16-8.79,11.36-15.78,11.36m-11.63-28.35a9.51,9.51,0,0,0-7.57,2.78c-2.18,2.28-3.54,5.59-3.86,11.25a102.47,102.47,0,0,0,0,14.07H317.62a123.83,123.83,0,0,0,1.27-14l.29-5.72a60,60,0,0,0-.44-13.31l10-.61a21.39,21.39,0,0,1,.59,6.41c4.37-6.56,8.73-8,11.59-7.89ZM301.15,360.9a90.29,90.29,0,0,0-1.87-10.3l-15,.39a54.54,54.54,0,0,0-2.77,9.91H271.46c4.3-9.33,9.72-25.12,13.09-34.95,1.75-5.09,2.36-9.07,2-11.36l16-2.29,6.89,31c1.32,5.59,3.46,13.74,5.1,17.58Zm189.56-13.48s-4.28-35-4.28-35l-16.12-2.6a106.91,106.91,0,0,1,2.82,15.91s2.41,22.39,2.41,22.39a107,107,0,0,1,.84,12.85v.54l-.65-1.58c-1.11-2.73-1.84-6.57-2.21-11.74,0,0-.67-7.19-.67-7.19-.85-11.37-7.11-16.56-20.69-16.56A54.45,54.45,0,0,0,440.58,326l.94,13,3.62-2.23a14.66,14.66,0,0,1,8-2.6c2.15,0,3.56.81,4.21,2.28a34.16,34.16,0,0,0-8.71,2.56c-4.8,2.15-7.94,5.25-9.2,9v-.31s-.55-11.88-.55-11.88c-.29-7.67-5.07-12.46-12.47-12.46a15.27,15.27,0,0,0-9.09,2.87,9.8,9.8,0,0,0-.48-1.29l-.66-1.38-13.91-.64a107,107,0,0,1,1.68,12.22,16.38,16.38,0,0,0-6.45-10.41,17.91,17.91,0,0,0-10.3-3,19.89,19.89,0,0,0-13.94,5.8c-3.52,3.59-5.46,8.5-5.66,14.28a16.19,16.19,0,0,0-5.23-3.68L356,335l-.32-.15c-1.53-.72-1.59-1-1.56-1.38.06-.66,1.53-1.36,3.63-1.36,2.62,0,6.43,1.32,9.51,3.29l.26-11.44a23.94,23.94,0,0,0-10-1.87,22.89,22.89,0,0,0-10.87,2.56,17.26,17.26,0,0,0-3.18,2.33l.19-3.66c-3.46-.42-7.49-.39-12.27,4a19.25,19.25,0,0,0-.69-2.77l-15,.92c1.12,4,1.25,10.13,1,15.57,0,0-.29,5.73-.29,5.73s0,.66,0,.66c-.17,3-.34,6.06-.64,8.92-1.25-3.88-2.63-9.18-3.67-13.58l-7.42-33.4-21.19,3A11.91,11.91,0,0,1,284,315c.19,1.4.13,4.29-1.89,10.16-3.4,9.9-8.3,24.53-13,34.63-.66,1.41-1.77,3.73-1.77,3.73h16.51a48.89,48.89,0,0,1,2.36-10l11-.29a71.29,71.29,0,0,1,1.34,7.78l.18,2.47H332c-.79-5.21-.48-12.42-.26-16.51.26-4.65,1.23-7.61,3.15-9.61a6.36,6.36,0,0,1,4.51-2c-.17,6.21,3.92,9.11,7.55,10.93l6.49,3.3c2.33,1.22,2.29,1.85,2.25,2.26-.09,1.25-2,1.73-3.7,1.69-3.38-.07-8.06-2.41-13.33-7.86l-.28,14.79a28.68,28.68,0,0,0,13.85,3.2c7.53,0,15.61-3.28,17.78-10.29,3.7,7.09,11.12,10.36,18.42,10.36a20.06,20.06,0,0,0,15.67-6.62c-.06,1.18-.36,5.13-.46,6.31H421a100.47,100.47,0,0,1-1.61-15.89s-.27-10-.27-10a3.11,3.11,0,0,1,.79-2.33,2.69,2.69,0,0,1,1.89-.84c.81,0,2.17,0,2.28,2.81l.38,10.66c.18,4.8.25,11.53-.39,15.61H441c-.28-1.46-.77-5-.88-5.91,2.12,4.51,6.68,6.81,12.78,6.81a15.79,15.79,0,0,0,8.49-2.58l.87,1.69h31.28a103.73,103.73,0,0,1-2.8-16.08" transform="translate(-225.56 -246.05)" style="fill:#da2128"/></g><g id="_Group_3" data-name="&lt;Group&gt;"><path d="M290.24,342.38c.85-2.46,1.77-5.28,3-9.43.74,4.11,1.3,7.18,1.73,9.26l-4.78.16m-3.72,2.73,11.67-.39L293.84,324Z" transform="translate(-225.56 -246.05)" style="fill:#da2128"/><path d="M525.49,401.28H415.17a60.38,60.38,0,0,1,25.58,41.5l21-5c4.7-1.05,6.64-4.22,7.13-7.13l52.93-3.58a232.53,232.53,0,0,1-5.74,22.88,228.88,228.88,0,0,1-29.78,62,249.86,249.86,0,0,1-47.09,51.43A298,298,0,0,1,382.45,600a309,309,0,0,0,53.13-42.44,249.11,249.11,0,0,0,42-55.48,234.08,234.08,0,0,0,24-65.25c.37-1.78.73-3.63,1.07-5.51l-6.24.43a228.5,228.5,0,0,1-23.24,67.74c-25.91,48.75-61,77.14-92.21,97.53-29.81-19.5-63.27-46.35-88.8-91.32-1.83.55-2.94.91-4.95,1.44a249.45,249.45,0,0,0,39.16,50.43A308.75,308.75,0,0,0,379.52,600a297.83,297.83,0,0,1-56.74-36.71,249.86,249.86,0,0,1-47.09-51.43c-1-1.49-2-3-3-4.51,18.75-3.16,39.48-11.12,58.61-22A60,60,0,0,1,321.57,462a98.3,98.3,0,0,1-17,16.74c-10.58,7.9-23.35,15.74-37.18,20a228.39,228.39,0,0,1-21.46-48.81,239.85,239.85,0,0,1-10.33-71.54c.12-22.29,5.73-63.06,13.74-95.2q10.63-4.59,21.47-8.4c-7.47,32.34-13.68,67.71-15.14,90.73-1.66,26.25.63,51.83,4.72,71.34a238.59,238.59,0,0,0,18.27,54.22c1.55-.73,3.22-1.55,4.76-2.37-21.94-47.18-23.2-92.44-20.88-124,1.7-23.05,7.88-60,15.53-92.4a333.85,333.85,0,0,1,205.87,0c7.66,32.41,13.84,69.35,15.54,92.41a291.06,291.06,0,0,1,.59,33.54h6.41a283.54,283.54,0,0,0-.14-32.74c-1.46-23-7.67-58.4-15.14-90.74q10.86,3.83,21.51,8.41c8,32.14,13.62,72.91,13.74,95.2q.06,11.57-.93,22.89M521.2,276a343.49,343.49,0,0,0-280.4,0c-9.83,39.78-15.11,78.37-15.23,102.37a249.86,249.86,0,0,0,10.77,74.52,239,239,0,0,0,31.08,64.68,260,260,0,0,0,49,53.49C334.39,586,358.77,602.36,381,612c22.23-9.59,46.61-26,64.61-40.92a260,260,0,0,0,49-53.49,239.11,239.11,0,0,0,31.08-64.68,249.86,249.86,0,0,0,10.77-74.52c-.13-24-5.4-62.59-15.23-102.37" transform="translate(-225.56 -246.05)" style="fill:#da2128"/></g></g></svg>